# xmcd
#
# Track frame offsets:
#	150
#	15617
#	25646
#	45865
#	67262
#	82483
#	99721
#	116279
#	133783
#	144973
#	160991
#	186322
#	204744
#	216639
#	243252
#	278402
#	295143
#
# Disc length: 4211 seconds
#
# Revision: 1
# Processed by: cddbd v1.5.2PL0 Copyright (c) Steve Scherf et al.
# Submitted via: EasyCDDAExtractor 16.0.9.1
#
DISCID=fc107111
DTITLE=Amy Winehouse - Frank (Deluxe Edition) [CD2)
DYEAR=2008
DGENRE=Soul
TTITLE0=Take The Box (Original Demo)
TTITLE1=I Heard Love Is Blind (Original Demo)
TTITLE2=Someone To Watch Over Me (Original Demo)
TTITLE3=What It Is (Original Demo)
TTITLE4=Teach Me Tonight (Hootenanny)
TTITLE5='round Midnight (B-Side)
TTITLE6=Fool's Gold (B-Side)
TTITLE7=Stronger Than Me (Later With Jools Holland)
TTITLE8=I Heard Love Is Blind (Live At The Concorde, Brighton)
TTITLE9=Take The Box (Live At The Concorde, Brighton)
TTITLE10=In My Bed (Live At The Concorde, Brighton)
TTITLE11=Mr Magic (Through The Smoke) (Janice Long Session)
TTITLE12=(There Is) No Greater Love (Janice Long Session)
TTITLE13=Fuck Me Pumps (MJ Cole Mix)
TTITLE14=Take The Box (Seijis Buggin' Mix)
TTITLE15=Stronger Than Me (Harmonic 33 Mix)
TTITLE16=In My Bed (CJ Mix)
EXTD=
EXTT0=
EXTT1=
EXTT2=
EXTT3=
EXTT4=
EXTT5=
EXTT6=
EXTT7=
EXTT8=
EXTT9=
EXTT10=
EXTT11=
EXTT12=
EXTT13=
EXTT14=
EXTT15=
EXTT16=
PLAYORDER=
